<svg width="1200" height="630" viewBox="0 0 1200 630" fill="none" xmlns="http://www.w3.org/2000/svg">
  <defs>
    <linearGradient id="bg" x1="0%" y1="0%" x2="100%" y2="100%">
      <stop offset="0%" style="stop-color:#0a0a0a"/>
      <stop offset="100%" style="stop-color:#171717"/>
    </linearGradient>
    <linearGradient id="accent" x1="0%" y1="0%" x2="100%" y2="100%">
      <stop offset="0%" style="stop-color:#3B82F6"/>
      <stop offset="100%" style="stop-color:#9333EA"/>
    </linearGradient>
  </defs>
  
  <!-- Background -->
  <rect width="1200" height="630" fill="url(#bg)"/>
  
  <!-- Decorative elements -->
  <circle cx="100" cy="100" r="200" fill="#3B82F6" opacity="0.1"/>
  <circle cx="1100" cy="530" r="250" fill="#9333EA" opacity="0.1"/>
  
  <!-- Logo icon -->
  <rect x="520" y="180" width="60" height="60" rx="12" fill="url(#accent)"/>
  <path d="M550 195L540 215H548L546 235L560 210H552L550 195Z" fill="white" stroke="white" stroke-width="1.5" stroke-linecap="round" stroke-linejoin="round"/>
  
  <!-- Brand name -->
  <text x="600" y="290" font-family="system-ui, -apple-system, sans-serif" font-size="72" font-weight="bold" fill="white" text-anchor="middle">75tools</text>
  
  <!-- Tagline -->
  <text x="600" y="360" font-family="system-ui, -apple-system, sans-serif" font-size="28" fill="#a1a1aa" text-anchor="middle">Outils de productivité gratuits</text>
  
  <!-- Tools badges -->
  <rect x="380" y="420" width="140" height="44" rx="22" fill="#1f1f1f" stroke="#3B82F6" stroke-width="2"/>
  <text x="450" y="449" font-family="system-ui, sans-serif" font-size="18" fill="white" text-anchor="middle">MyCard</text>
  
  <rect x="540" y="420" width="140" height="44" rx="22" fill="#1f1f1f" stroke="#9333EA" stroke-width="2"/>
  <text x="610" y="449" font-family="system-ui, sans-serif" font-size="18" fill="white" text-anchor="middle">NetSalaire</text>
  
  <rect x="700" y="420" width="140" height="44" rx="22" fill="#1f1f1f" stroke="#404040" stroke-width="2"/>
  <text x="770" y="449" font-family="system-ui, sans-serif" font-size="18" fill="#737373" text-anchor="middle">+ more</text>
  
  <!-- URL -->
  <text x="600" y="570" font-family="system-ui, sans-serif" font-size="20" fill="#525252" text-anchor="middle">75tools.fr</text>
</svg>
